G04 #@! TF.GenerationSoftware,KiCad,Pcbnew,6.0.9-8da3e8f707~116~ubuntu20.04.1*
G04 #@! TF.CreationDate,2023-04-19T17:14:30+00:00*
G04 #@! TF.ProjectId,LEC022001,4c454330-3232-4303-9031-2e6b69636164,rev?*
G04 #@! TF.SameCoordinates,Original*
G04 #@! TF.FileFunction,Profile,NP*
%FSLAX46Y46*%
G04 Gerber Fmt 4.6, Leading zero omitted, Abs format (unit mm)*
G04 Created by KiCad (PCBNEW 6.0.9-8da3e8f707~116~ubuntu20.04.1) date 2023-04-19 17:14:30*
%MOMM*%
%LPD*%
G01*
G04 APERTURE LIST*
G04 #@! TA.AperFunction,Profile*
%ADD10C,0.050000*%
G04 #@! TD*
G04 APERTURE END LIST*
D10*
X86360000Y-92710000D02*
X83820000Y-90170000D01*
X86360000Y-72390000D02*
X85090000Y-73660000D01*
X99060000Y-67310000D02*
X101600000Y-64770000D01*
X119380000Y-97790000D02*
X116840000Y-100330000D01*
X87630000Y-67310000D02*
X99060000Y-67310000D01*
X86360000Y-68580000D02*
X87630000Y-67310000D01*
X124460000Y-96520000D02*
X123190000Y-97790000D01*
X123190000Y-97790000D02*
X119380000Y-97790000D01*
X123190000Y-67310000D02*
X124460000Y-68580000D01*
X124460000Y-95250000D02*
X124460000Y-96520000D01*
X116840000Y-64770000D02*
X119380000Y-67310000D01*
X83820000Y-90170000D02*
X83820000Y-74930000D01*
X101600000Y-100330000D02*
X99060000Y-97790000D01*
X86360000Y-68580000D02*
X86360000Y-72390000D01*
X119380000Y-67310000D02*
X123190000Y-67310000D01*
X86360000Y-96520000D02*
X86360000Y-92710000D01*
X124460000Y-68580000D02*
X124460000Y-95250000D01*
X99060000Y-97790000D02*
X87630000Y-97790000D01*
X101600000Y-64770000D02*
X116840000Y-64770000D01*
X83820000Y-74930000D02*
X85090000Y-73660000D01*
X87630000Y-97790000D02*
X86360000Y-96520000D01*
X116840000Y-100330000D02*
X101600000Y-100330000D01*
M02*
